<svg width="91" height="65" viewBox="0 0 91 65" fill="none" xmlns="http://www.w3.org/2000/svg">
<path d="M41.7948 31.1543H43.6558V64.3771H41.7948V31.1543Z" fill="url(#paint0_linear)"/>
<path d="M80.491 10.0336C80.4834 9.12829 81.2046 8.39556 82.1078 8.38902C83.0281 8.38245 83.7544 9.10578 83.7567 10.0293C83.7579 10.9293 83.026 11.6621 82.125 11.6633C81.2271 11.6655 80.4986 10.94 80.491 10.0336Z" fill="url(#paint1_linear)"/>
<path d="M62.9521 28.4041C62.948 29.3073 62.2208 30.0308 61.3165 30.0321C60.4219 30.0334 59.678 29.2955 59.6767 28.4009C59.6733 27.4945 60.4295 26.7441 61.3348 26.7536C62.2348 26.7651 62.9551 27.4987 62.9521 28.4041Z" fill="url(#paint2_linear)"/>
<path d="M89.1417 17.7845C88.2428 17.7773 87.5002 17.0244 87.5193 16.1396C87.5406 15.2279 88.2646 14.5117 89.1646 14.5114C90.0764 14.5111 90.8051 15.2564 90.7955 16.1767C90.7871 17.0767 90.0535 17.7917 89.1417 17.7845Z" fill="url(#paint3_linear)"/>
<path d="M75.0948 38.9975C75.9937 39.0013 76.7325 39.7421 76.7277 40.6335C76.7239 41.5325 75.9873 42.2691 75.0927 42.2728C74.1787 42.2754 73.4496 41.5368 73.4545 40.6164C73.4583 39.7121 74.1884 38.9926 75.0948 38.9975Z" fill="url(#paint4_linear)"/>
<path d="M89.1758 8.40568C90.079 8.41059 90.7981 9.14008 90.7953 10.0454C90.7925 10.9476 90.0609 11.6784 89.1619 11.6821C88.2597 11.6847 87.5076 10.924 87.52 10.0187C87.5335 9.11764 88.2673 8.40182 89.1758 8.40568Z" fill="url(#paint5_linear)"/>
<path d="M80.4917 28.3915C80.4973 27.4862 81.2256 26.7606 82.1267 26.764C83.0267 26.7675 83.7576 27.5001 83.7595 28.4001C83.7614 29.3108 83.017 30.0492 82.1041 30.0415C81.2074 30.0338 80.4861 29.298 80.4917 28.3915Z" fill="url(#paint6_linear)"/>
<path d="M90.795 40.6465C90.7932 41.5498 90.0641 42.2822 89.1662 42.2839C88.2586 42.2867 87.5115 41.5329 87.5197 40.6254C87.531 39.7266 88.2676 39.0049 89.1719 39.0085C90.0761 39.0133 90.7988 39.7412 90.795 40.6465Z" fill="url(#paint7_linear)"/>
<path d="M90.7947 22.2782C90.7961 23.1868 90.0796 23.908 89.1711 23.9136C88.2689 23.918 87.5272 23.194 87.5183 22.2983C87.5105 21.3876 88.2515 20.6459 89.1655 20.65C90.0784 20.653 90.7954 21.3697 90.7947 22.2782Z" fill="url(#paint8_linear)"/>
<path d="M66.5182 28.3926C66.5212 27.4905 67.2538 26.7583 68.1516 26.7614C69.0495 26.7633 69.7859 27.498 69.7882 28.3958C69.7905 29.3076 69.0462 30.0472 68.1334 30.0399C67.2313 30.0315 66.5163 29.3033 66.5182 28.3926Z" fill="url(#paint9_linear)"/>
<path d="M90.7949 28.4258C90.7896 29.3279 90.0572 30.0548 89.1572 30.0517C88.2594 30.0497 87.5218 29.3141 87.5174 28.4184C87.5142 27.5152 88.2724 26.7637 89.1788 26.7732C90.0766 26.7827 90.7992 27.5215 90.7949 28.4258Z" fill="url(#paint10_linear)"/>
<path d="M73.4542 16.1321C73.4605 15.2289 74.1945 14.5005 75.0945 14.5068C75.9934 14.5119 76.7219 15.2439 76.7295 16.1471C76.7361 17.0472 75.9859 17.7841 75.0645 17.7799C74.1634 17.7736 73.45 17.0439 73.4542 16.1321Z" fill="url(#paint11_linear)"/>
<path d="M89.1636 51.2485C90.0925 51.2546 90.8045 51.9771 90.7942 52.9028C90.7861 53.806 90.0518 54.519 89.1422 54.5109C88.2443 54.5018 87.5014 53.7512 87.5201 52.8674C87.5368 51.9535 88.2615 51.2415 89.1636 51.2485Z" fill="url(#paint12_linear)"/>
<path d="M89.1723 0.849442C90.0755 0.849967 90.7976 1.57853 90.796 2.48496C90.7944 3.38924 90.0734 4.10711 89.1626 4.11407C88.2648 4.11999 87.5298 3.39246 87.5206 2.49028C87.5115 1.58168 88.2487 0.848857 89.1723 0.849442Z" fill="url(#paint13_linear)"/>
<path d="M73.4539 28.3705C73.4691 27.4695 74.208 26.7525 75.1122 26.7635C76.0047 26.7743 76.7354 27.5262 76.7256 28.4219C76.7137 29.3197 75.9714 30.0484 75.0757 30.0419C74.1596 30.0339 73.4394 29.2907 73.4539 28.3705Z" fill="url(#paint14_linear)"/>
<path d="M80.4931 16.1461C80.4965 15.2365 81.2158 14.5115 82.118 14.5073C83.0298 14.5022 83.7622 15.2419 83.7577 16.1622C83.7522 17.0665 83.0254 17.7829 82.1169 17.7795C81.2072 17.7761 80.4897 17.0536 80.4931 16.1461Z" fill="url(#paint15_linear)"/>
<path d="M75.0705 36.1502C74.163 36.148 73.4498 35.4277 73.4533 34.517C73.4568 33.6127 74.1858 32.8834 75.0868 32.8856C75.9976 32.889 76.7438 33.6426 76.7275 34.5468C76.7112 35.4521 75.9866 36.1536 75.0705 36.1502Z" fill="url(#paint16_linear)"/>
<path d="M89.1666 36.123C88.2569 36.1226 87.5253 35.4047 87.5214 34.5079C87.5165 33.595 88.2581 32.8537 89.172 32.8616C90.0806 32.8695 90.7983 33.5928 90.7957 34.4971C90.7953 35.4046 90.0751 36.1234 89.1666 36.123Z" fill="url(#paint17_linear)"/>
<path d="M73.4545 22.2956C73.4498 21.3024 74.2373 20.6899 75.0836 20.6676C75.991 20.644 76.7223 21.3871 76.7255 22.2838C76.7289 23.2106 75.9847 23.9494 75.045 23.9249C74.1771 23.9023 73.431 23.2086 73.4545 22.2956Z" fill="url(#paint18_linear)"/>
<path d="M83.7554 40.6324C83.7607 41.4959 82.9911 42.2744 82.1286 42.2785C81.2629 42.2826 80.4972 41.5204 80.4865 40.644C80.4746 39.7472 81.2016 39.0064 82.1026 38.9979C83.0219 38.9882 83.7499 39.7077 83.7554 40.6324Z" fill="url(#paint19_linear)"/>
<path d="M90.7929 46.7616C90.7657 47.7245 90.0738 48.3477 89.2171 48.3732C88.1932 48.4033 87.5146 47.6529 87.5191 46.7035C87.522 45.8431 88.2893 45.0755 89.1352 45.1119C90.0679 45.1521 90.8149 45.8522 90.7929 46.7616Z" fill="url(#paint20_linear)"/>
<path d="M68.1313 36.1316C67.2206 36.1265 66.5131 35.4071 66.5174 34.4942C66.5227 33.5878 67.2477 32.8674 68.1541 32.8703C69.0691 32.8722 69.7979 33.6111 69.7872 34.5293C69.7766 35.4314 69.0473 36.1379 68.1313 36.1316Z" fill="url(#paint21_linear)"/>
<path d="M68.2364 20.6427C69.064 20.6671 69.8092 21.4685 69.7859 22.3085C69.7618 23.2397 69.016 23.9235 68.1291 23.9122C67.1844 23.9001 66.494 23.1562 66.5188 22.2058C66.5438 21.3454 67.3447 20.6162 68.2364 20.6427Z" fill="url(#paint22_linear)"/>
<path d="M82.1568 48.3894C81.242 48.4071 80.5234 47.7089 80.4882 46.8041C80.4497 45.7494 81.4135 45.1444 82.084 45.1256C82.9912 45.1006 83.7437 45.8301 83.7577 46.7472C83.7714 47.6492 83.0684 48.3707 82.1568 48.3894Z" fill="url(#paint23_linear)"/>
<path d="M82.1206 36.1317C81.2056 36.1309 80.4927 35.4199 80.4906 34.5092C80.4884 33.592 81.2243 32.8609 82.1435 32.8715C83.0381 32.8818 83.752 33.5971 83.7565 34.4853C83.7618 35.4154 83.0485 36.1338 82.1206 36.1317Z" fill="url(#paint24_linear)"/>
<path d="M34.1553 7.73145H30.6357L23.2268 19.3114H28.2282L34.1553 7.73145Z" fill="url(#paint25_linear)"/>
<path d="M37.7603 11.6885L34.153 7.73204L30.6343 7.73061L35.9808 11.688L37.7603 11.6885Z" fill="url(#paint26_linear)"/>
<path d="M82.1443 20.6386C83.0464 20.6435 83.7639 21.3767 83.7567 22.2842C83.7496 23.1938 83.0228 23.9102 82.1186 23.902C81.1886 23.8936 80.4829 23.1723 80.4923 22.2435C80.5016 21.3403 81.2293 20.6335 82.1443 20.6386Z" fill="url(#paint27_linear)"/>
<path d="M36.845 27.1067C35.2421 27.1078 33.6404 27.1014 32.0375 27.1121C31.7954 27.1142 31.7086 27.0403 31.6861 26.8025C31.6443 26.3782 31.5714 25.9592 31.5114 25.5467C31.5404 25.5285 31.5489 25.52 31.5564 25.52C32.8979 25.5178 34.2414 25.4878 35.5829 25.5296C36.1604 25.5478 36.6479 25.8596 36.9457 26.3803C37.0582 26.5796 37.1054 26.8164 37.2007 27.0875C37.0207 27.0971 36.9329 27.1067 36.845 27.1067ZM26.5132 31.161C26.5014 30.9821 26.4875 30.7999 26.4715 30.5835H25.5618V29.301H25.9218C26.6879 29.301 27.4539 29.3085 28.22 29.2957C28.4589 29.2914 28.5736 29.3353 28.5993 29.6074C28.6475 30.1207 28.7429 30.6296 28.8232 31.161H26.5132ZM27.9897 25.521C28.0668 26.0235 28.1439 26.5389 28.2264 27.0821H25.5736C25.5072 26.0792 26.5593 25.3882 27.9897 25.521ZM57.441 29.4199C56.8614 29.241 56.2775 29.076 55.6946 28.911C54.981 28.7074 54.9885 28.7085 54.9821 27.9821C54.981 27.7785 55.0357 27.6885 55.2425 27.6328C55.9732 27.4399 56.6975 27.2246 57.4207 27.006C57.5053 26.9814 57.6296 26.8871 57.6328 26.8196C57.6532 26.3953 57.6435 25.9689 57.6435 25.5082H53.2614V24.2064C51.1025 23.6225 48.9757 23.046 46.7964 22.4557V24.276C46.58 24.1485 46.4107 24.0167 46.2189 23.9439L35.885 20.4768C34.8661 19.9378 33.8964 19.415 32.9182 18.9114C32.3097 18.5975 31.6989 18.2814 31.0679 18.0189C28.9218 17.1264 26.6793 16.7321 24.3607 16.8478C22.73 16.9282 21.1036 17.0739 19.4761 17.2078C18.7765 17.2657 18.1465 17.5346 17.7147 18.1014C17.225 18.7389 16.8147 19.4364 16.3358 20.0825C15.9618 20.5893 15.8172 21.1378 15.8258 21.7582C15.8354 22.5039 15.8343 23.2528 15.7808 23.9975C15.7004 25.1117 15.1261 25.61 14.0118 25.6207C13.535 25.626 13.0518 25.6132 12.5826 25.6839C11.4265 25.8585 10.4011 26.7617 10.3583 27.9799C10.3551 28.0582 10.3272 28.1364 10.3058 28.2124C9.68434 30.4657 9.06185 32.7178 8.43828 34.9699C7.42042 38.6471 6.40149 42.3253 5.38364 46.0035C4.789 48.1506 4.19543 50.2967 3.60186 52.4427C2.76293 55.4717 1.95294 58.5081 1.06794 61.5231C0.830081 62.3395 1.21901 63.1077 2.01079 63.3574C2.81757 63.6113 3.62114 63.8727 4.42471 64.1352C5.42543 64.4599 6.41542 64.5081 7.38614 64.0281C9.26756 63.097 11.1715 62.2109 13.024 61.2242C14.9429 60.202 16.2597 58.6345 16.9658 56.5485C17.7854 54.1281 18.6554 51.7249 19.5018 49.3131C19.5586 49.1503 19.6208 49.0517 19.8243 49.0388C21.155 48.951 22.4868 48.8503 23.8154 48.7367C23.9354 48.727 24.0457 48.6017 24.1604 48.531C24.065 48.4345 23.9879 48.2953 23.8722 48.2492C23.0943 47.946 22.309 47.6631 21.5257 47.3706C20.855 47.121 20.1618 46.9185 19.5211 46.6067C18.5193 46.1181 18.0843 45.0499 18.41 44.0824C19.2222 41.6696 20.0461 39.261 20.8379 36.8406C21.1036 36.0274 21.6211 35.5539 22.4322 35.3556C22.9829 35.2217 23.5315 35.0824 24.0779 34.9314C25.0186 34.6689 25.4986 34.0506 25.5425 33.0746C25.5447 33.0274 25.5607 32.9814 25.5757 32.9053H26.4779C26.4907 32.691 26.5004 32.5078 26.51 32.3246H28.9925C29.0632 32.8142 29.1061 33.2824 29.2025 33.7378C29.3043 34.2135 29.255 34.6303 29.0397 35.0824C28.3079 36.6146 28.0497 38.2271 28.4032 39.906C28.6539 41.1049 28.9389 42.2996 29.705 43.3035C31.0154 45.021 32.6246 46.3978 34.4932 47.4713C34.7579 47.6235 35.0536 47.7285 35.3471 47.8174C35.4596 47.8506 35.6568 47.8228 35.72 47.7456C35.7843 47.6674 35.7768 47.4628 35.7168 47.3663C35.5443 47.0899 35.3471 46.8231 35.1264 46.5831C34.5296 45.9274 33.9029 45.2995 33.3125 44.6395C32.3611 43.5756 31.6014 42.4046 31.2329 40.9967C30.8697 39.6135 30.935 38.301 31.6507 37.041C32.015 36.4014 32.3718 35.7564 32.7071 35.1017C32.795 34.9303 32.84 34.7031 32.8143 34.5135C32.6621 33.3499 32.4822 32.1896 32.3129 31.0282C32.2293 30.4635 32.1489 29.8967 32.0675 29.3289H37.1525C37.1525 29.8967 37.1536 30.4324 37.1525 30.9703C37.1504 31.5617 37.4268 31.9946 37.91 32.3096C38.2539 32.5335 38.6343 32.6214 39.0436 32.6203C40.9357 32.6171 42.8278 32.6139 44.7211 32.6214C45.4507 32.6246 46.1803 32.6589 46.8082 32.0396V33.9199C48.9832 33.3317 51.1164 32.7542 53.2732 32.1703V30.9028H57.6435C57.6435 30.4485 57.6532 30.0307 57.6349 29.616C57.6317 29.5453 57.5214 29.4457 57.441 29.4199Z" fill="url(#paint28_linear)"/>
<defs>
<linearGradient id="paint0_linear" x1="43.6594" y1="47.7655" x2="42.4815" y2="47.7655" gradientUnits="userSpaceOnUse">
<stop stop-color="#231F20"/>
<stop offset="1" stop-color="#5A5758"/>
</linearGradient>
<linearGradient id="paint1_linear" x1="82.1217" y1="8.38275" x2="82.1244" y2="10.4551" gradientUnits="userSpaceOnUse">
<stop stop-color="#231F20"/>
<stop offset="1" stop-color="#5A5758"/>
</linearGradient>
<linearGradient id="paint2_linear" x1="61.3128" y1="30.0383" x2="61.3148" y2="27.9632" gradientUnits="userSpaceOnUse">
<stop stop-color="#231F20"/>
<stop offset="1" stop-color="#5A5758"/>
</linearGradient>
<linearGradient id="paint3_linear" x1="87.5129" y1="16.1368" x2="89.5866" y2="16.1513" gradientUnits="userSpaceOnUse">
<stop stop-color="#231F20"/>
<stop offset="1" stop-color="#5A5758"/>
</linearGradient>
<linearGradient id="paint4_linear" x1="76.7339" y1="40.6362" x2="74.6622" y2="40.6349" gradientUnits="userSpaceOnUse">
<stop stop-color="#231F20"/>
<stop offset="1" stop-color="#5A5758"/>
</linearGradient>
<linearGradient id="paint5_linear" x1="90.8015" y1="10.0508" x2="88.7285" y2="10.042" gradientUnits="userSpaceOnUse">
<stop stop-color="#231F20"/>
<stop offset="1" stop-color="#5A5758"/>
</linearGradient>
<linearGradient id="paint6_linear" x1="82.1299" y1="26.7578" x2="82.1244" y2="28.8322" gradientUnits="userSpaceOnUse">
<stop stop-color="#231F20"/>
<stop offset="1" stop-color="#5A5758"/>
</linearGradient>
<linearGradient id="paint7_linear" x1="89.1463" y1="42.2901" x2="89.1597" y2="40.2171" gradientUnits="userSpaceOnUse">
<stop stop-color="#231F20"/>
<stop offset="1" stop-color="#5A5758"/>
</linearGradient>
<linearGradient id="paint8_linear" x1="89.1668" y1="23.9198" x2="89.1542" y2="21.8542" gradientUnits="userSpaceOnUse">
<stop stop-color="#231F20"/>
<stop offset="1" stop-color="#5A5758"/>
</linearGradient>
<linearGradient id="paint9_linear" x1="68.1548" y1="26.7551" x2="68.1528" y2="28.8302" gradientUnits="userSpaceOnUse">
<stop stop-color="#231F20"/>
<stop offset="1" stop-color="#5A5758"/>
</linearGradient>
<linearGradient id="paint10_linear" x1="89.1524" y1="30.058" x2="89.1571" y2="27.9829" gradientUnits="userSpaceOnUse">
<stop stop-color="#231F20"/>
<stop offset="1" stop-color="#5A5758"/>
</linearGradient>
<linearGradient id="paint11_linear" x1="75.0994" y1="14.5006" x2="75.0899" y2="16.5722" gradientUnits="userSpaceOnUse">
<stop stop-color="#231F20"/>
<stop offset="1" stop-color="#5A5758"/>
</linearGradient>
<linearGradient id="paint12_linear" x1="90.8005" y1="52.8905" x2="88.7281" y2="52.8769" gradientUnits="userSpaceOnUse">
<stop stop-color="#231F20"/>
<stop offset="1" stop-color="#5A5758"/>
</linearGradient>
<linearGradient id="paint13_linear" x1="90.8022" y1="2.4866" x2="88.7292" y2="2.48048" gradientUnits="userSpaceOnUse">
<stop stop-color="#231F20"/>
<stop offset="1" stop-color="#5A5758"/>
</linearGradient>
<linearGradient id="paint14_linear" x1="75.1155" y1="26.7573" x2="75.0829" y2="28.8321" gradientUnits="userSpaceOnUse">
<stop stop-color="#231F20"/>
<stop offset="1" stop-color="#5A5758"/>
</linearGradient>
<linearGradient id="paint15_linear" x1="82.1335" y1="14.5011" x2="82.1233" y2="16.5721" gradientUnits="userSpaceOnUse">
<stop stop-color="#231F20"/>
<stop offset="1" stop-color="#5A5758"/>
</linearGradient>
<linearGradient id="paint16_linear" x1="73.4471" y1="34.51" x2="75.5195" y2="34.5204" gradientUnits="userSpaceOnUse">
<stop stop-color="#231F20"/>
<stop offset="1" stop-color="#5A5758"/>
</linearGradient>
<linearGradient id="paint17_linear" x1="87.5152" y1="34.4896" x2="89.5875" y2="34.4931" gradientUnits="userSpaceOnUse">
<stop stop-color="#231F20"/>
<stop offset="1" stop-color="#5A5758"/>
</linearGradient>
<linearGradient id="paint18_linear" x1="75.0838" y1="20.661" x2="75.0912" y2="22.7232" gradientUnits="userSpaceOnUse">
<stop stop-color="#231F20"/>
<stop offset="1" stop-color="#5A5758"/>
</linearGradient>
<linearGradient id="paint19_linear" x1="82.127" y1="42.2847" x2="82.1196" y2="40.2083" gradientUnits="userSpaceOnUse">
<stop stop-color="#231F20"/>
<stop offset="1" stop-color="#5A5758"/>
</linearGradient>
<linearGradient id="paint20_linear" x1="89.1259" y1="48.38" x2="89.1625" y2="46.3158" gradientUnits="userSpaceOnUse">
<stop stop-color="#231F20"/>
<stop offset="1" stop-color="#5A5758"/>
</linearGradient>
<linearGradient id="paint21_linear" x1="66.5112" y1="34.4899" x2="68.5808" y2="34.5044" gradientUnits="userSpaceOnUse">
<stop stop-color="#231F20"/>
<stop offset="1" stop-color="#5A5758"/>
</linearGradient>
<linearGradient id="paint22_linear" x1="69.7915" y1="22.3292" x2="67.7238" y2="22.2613" gradientUnits="userSpaceOnUse">
<stop stop-color="#231F20"/>
<stop offset="1" stop-color="#5A5758"/>
</linearGradient>
<linearGradient id="paint23_linear" x1="80.4816" y1="46.793" x2="82.5508" y2="46.7468" gradientUnits="userSpaceOnUse">
<stop stop-color="#231F20"/>
<stop offset="1" stop-color="#5A5758"/>
</linearGradient>
<linearGradient id="paint24_linear" x1="80.4844" y1="34.4904" x2="82.5514" y2="34.5049" gradientUnits="userSpaceOnUse">
<stop stop-color="#231F20"/>
<stop offset="1" stop-color="#5A5758"/>
</linearGradient>
<linearGradient id="paint25_linear" x1="34.1761" y1="13.5214" x2="27.2593" y2="13.5214" gradientUnits="userSpaceOnUse">
<stop stop-color="#231F20"/>
<stop offset="1" stop-color="#5A5758"/>
</linearGradient>
<linearGradient id="paint26_linear" x1="36.8098" y1="12.5749" x2="33.5155" y2="8.96143" gradientUnits="userSpaceOnUse">
<stop stop-color="#231F20"/>
<stop offset="1" stop-color="#5A5758"/>
</linearGradient>
<linearGradient id="paint27_linear" x1="83.7629" y1="22.2831" x2="81.6968" y2="22.2669" gradientUnits="userSpaceOnUse">
<stop stop-color="#231F20"/>
<stop offset="1" stop-color="#5A5758"/>
</linearGradient>
<linearGradient id="paint28_linear" x1="0.891068" y1="40.6057" x2="36.7439" y2="40.6057" gradientUnits="userSpaceOnUse">
<stop stop-color="#231F20"/>
<stop offset="1" stop-color="#5A5758"/>
</linearGradient>
</defs>
</svg>
