<svg fill="none" height="65" viewBox="0 0 91 65" width="91" xmlns="http://www.w3.org/2000/svg" xmlns:xlink="http://www.w3.org/1999/xlink"><linearGradient id="a"><stop offset="0" stop-color="#231f20"/><stop offset="1" stop-color="#5a5758"/></linearGradient><linearGradient id="b" gradientUnits="userSpaceOnUse" x1="43.6594" x2="42.4815" xlink:href="#a" y1="47.7655" y2="47.7655"/><linearGradient id="c" gradientUnits="userSpaceOnUse" x1="82.1217" x2="82.1244" xlink:href="#a" y1="8.38275" y2="10.4551"/><linearGradient id="d" gradientUnits="userSpaceOnUse" x1="61.3128" x2="61.3148" xlink:href="#a" y1="30.0383" y2="27.9632"/><linearGradient id="e" gradientUnits="userSpaceOnUse" x1="87.5129" x2="89.5866" xlink:href="#a" y1="16.1368" y2="16.1513"/><linearGradient id="f" gradientUnits="userSpaceOnUse" x1="76.7339" x2="74.6622" xlink:href="#a" y1="40.6362" y2="40.6349"/><linearGradient id="g" gradientUnits="userSpaceOnUse" x1="90.8015" x2="88.7285" xlink:href="#a" y1="10.0508" y2="10.042"/><linearGradient id="h" gradientUnits="userSpaceOnUse" x1="82.1299" x2="82.1244" xlink:href="#a" y1="26.7578" y2="28.8322"/><linearGradient id="i" gradientUnits="userSpaceOnUse" x1="89.1463" x2="89.1597" xlink:href="#a" y1="42.2901" y2="40.2171"/><linearGradient id="j" gradientUnits="userSpaceOnUse" x1="89.1668" x2="89.1542" xlink:href="#a" y1="23.9198" y2="21.8542"/><linearGradient id="k" gradientUnits="userSpaceOnUse" x1="68.1548" x2="68.1528" xlink:href="#a" y1="26.7551" y2="28.8302"/><linearGradient id="l" gradientUnits="userSpaceOnUse" x1="89.1524" x2="89.1571" xlink:href="#a" y1="30.058" y2="27.9829"/><linearGradient id="m" gradientUnits="userSpaceOnUse" x1="75.0994" x2="75.0899" xlink:href="#a" y1="14.5006" y2="16.5722"/><linearGradient id="n" gradientUnits="userSpaceOnUse" x1="90.8005" x2="88.7281" xlink:href="#a" y1="52.8905" y2="52.8769"/><linearGradient id="o" gradientUnits="userSpaceOnUse" x1="90.8022" x2="88.7292" xlink:href="#a" y1="2.4866" y2="2.48048"/><linearGradient id="p" gradientUnits="userSpaceOnUse" x1="75.1155" x2="75.0829" xlink:href="#a" y1="26.7573" y2="28.8321"/><linearGradient id="q" gradientUnits="userSpaceOnUse" x1="82.1335" x2="82.1233" xlink:href="#a" y1="14.5011" y2="16.5721"/><linearGradient id="r" gradientUnits="userSpaceOnUse" x1="73.4471" x2="75.5195" xlink:href="#a" y1="34.51" y2="34.5204"/><linearGradient id="s" gradientUnits="userSpaceOnUse" x1="87.5152" x2="89.5875" xlink:href="#a" y1="34.4896" y2="34.4931"/><linearGradient id="t" gradientUnits="userSpaceOnUse" x1="75.0838" x2="75.0912" xlink:href="#a" y1="20.661" y2="22.7232"/><linearGradient id="u" gradientUnits="userSpaceOnUse" x1="82.127" x2="82.1196" xlink:href="#a" y1="42.2847" y2="40.2083"/><linearGradient id="v" gradientUnits="userSpaceOnUse" x1="89.1259" x2="89.1625" xlink:href="#a" y1="48.38" y2="46.3158"/><linearGradient id="w" gradientUnits="userSpaceOnUse" x1="66.5112" x2="68.5808" xlink:href="#a" y1="34.4899" y2="34.5044"/><linearGradient id="x" gradientUnits="userSpaceOnUse" x1="69.7915" x2="67.7238" xlink:href="#a" y1="22.3292" y2="22.2613"/><linearGradient id="y" gradientUnits="userSpaceOnUse" x1="80.4816" x2="82.5508" xlink:href="#a" y1="46.793" y2="46.7468"/><linearGradient id="z" gradientUnits="userSpaceOnUse" x1="80.4844" x2="82.5514" xlink:href="#a" y1="34.4904" y2="34.5049"/><linearGradient id="A" gradientUnits="userSpaceOnUse" x1="34.1761" x2="27.2593" xlink:href="#a" y1="13.5214" y2="13.5214"/><linearGradient id="B" gradientUnits="userSpaceOnUse" x1="36.8098" x2="33.5155" xlink:href="#a" y1="12.5749" y2="8.96143"/><linearGradient id="C" gradientUnits="userSpaceOnUse" x1="83.7629" x2="81.6968" xlink:href="#a" y1="22.2831" y2="22.2669"/><linearGradient id="D" gradientUnits="userSpaceOnUse" x1=".891068" x2="36.7439" xlink:href="#a" y1="40.6057" y2="40.6057"/><path d="m41.7948 31.1543h1.861v33.2228h-1.861z" fill="url(#b)"/><path d="m80.491 10.0336c-.0076-.90531.7136-1.63804 1.6168-1.64458.9203-.00657 1.6466.71676 1.6489 1.64028.0012.9-.7307 1.6328-1.6317 1.634-.8979.0022-1.6264-.7233-1.634-1.6297z" fill="url(#c)"/><path d="m62.9521 28.4041c-.0041.9032-.7313 1.6267-1.6356 1.628-.8946.0013-1.6385-.7366-1.6398-1.6312-.0034-.9064.7528-1.6568 1.6581-1.6473.9.0115 1.6203.7451 1.6173 1.6505z" fill="url(#d)"/><path d="m89.1417 17.7845c-.8989-.0072-1.6415-.7601-1.6224-1.6449.0213-.9117.7453-1.6279 1.6453-1.6282.9118-.0003 1.6405.745 1.6309 1.6653-.0084.9-.742 1.615-1.6538 1.6078z" fill="url(#e)"/><path d="m75.0948 38.9975c.8989.0038 1.6377.7446 1.6329 1.636-.0038.899-.7404 1.6356-1.635 1.6393-.914.0026-1.6431-.736-1.6382-1.6564.0038-.9043.7339-1.6238 1.6403-1.6189z" fill="url(#f)"/><path d="m89.1758 8.40568c.9032.00491 1.6223.7344 1.6195 1.63972-.0028.9022-.7344 1.633-1.6334 1.6367-.9022.0026-1.6543-.7581-1.6419-1.6634.0135-.90106.7473-1.61688 1.6558-1.61302z" fill="url(#g)"/><path d="m80.4917 28.3915c.0056-.9053.7339-1.6309 1.635-1.6275.9.0035 1.6309.7361 1.6328 1.6361.0019.9107-.7425 1.6491-1.6554 1.6414-.8967-.0077-1.618-.7435-1.6124-1.65z" fill="url(#h)"/><path d="m90.795 40.6465c-.0018.9033-.7309 1.6357-1.6288 1.6374-.9076.0028-1.6547-.751-1.6465-1.6585.0113-.8988.7479-1.6205 1.6522-1.6169.9042.0048 1.6269.7327 1.6231 1.638z" fill="url(#i)"/><path d="m90.7947 22.2782c.0014.9086-.7151 1.6298-1.6236 1.6354-.9022.0044-1.6439-.7196-1.6528-1.6153-.0078-.9107.7332-1.6524 1.6472-1.6483.9129.003 1.6299.7197 1.6292 1.6282z" fill="url(#j)"/><path d="m66.5182 28.3926c.003-.9021.7356-1.6343 1.6334-1.6312.8979.0019 1.6343.7366 1.6366 1.6344.0023.9118-.742 1.6514-1.6548 1.6441-.9021-.0084-1.6171-.7366-1.6152-1.6473z" fill="url(#k)"/><path d="m90.7949 28.4258c-.0053.9021-.7377 1.629-1.6377 1.6259-.8978-.002-1.6354-.7376-1.6398-1.6333-.0032-.9032.755-1.6547 1.6614-1.6452.8978.0095 1.6204.7483 1.6161 1.6526z" fill="url(#l)"/><path d="m73.4542 16.1321c.0063-.9032.7403-1.6316 1.6403-1.6253.8989.0051 1.6274.7371 1.635 1.6403.0066.9001-.7436 1.637-1.665 1.6328-.9011-.0063-1.6145-.736-1.6103-1.6478z" fill="url(#m)"/><path d="m89.1636 51.2485c.9289.0061 1.6409.7286 1.6306 1.6543-.0081.9032-.7424 1.6162-1.652 1.6081-.8979-.0091-1.6408-.7597-1.6221-1.6435.0167-.9139.7414-1.6259 1.6435-1.6189z" fill="url(#n)"/><path d="m89.1723.849442c.9032.000525 1.6253.729088 1.6237 1.635518-.0016.90428-.7226 1.62215-1.6334 1.62911-.8978.00592-1.6328-.72161-1.642-1.62379-.0091-.9086.7281-1.641423 1.6517-1.640838z" fill="url(#o)"/><path d="m73.4539 28.3705c.0152-.901.7541-1.618 1.6583-1.607.8925.0108 1.6232.7627 1.6134 1.6584-.0119.8978-.7542 1.6265-1.6499 1.62-.9161-.008-1.6363-.7512-1.6218-1.6714z" fill="url(#p)"/><path d="m80.4931 16.1461c.0034-.9096.7227-1.6346 1.6249-1.6388.9118-.0051 1.6442.7346 1.6397 1.6549-.0055.9043-.7323 1.6207-1.6408 1.6173-.9097-.0034-1.6272-.7259-1.6238-1.6334z" fill="url(#q)"/><path d="m75.0705 36.1502c-.9075-.0022-1.6207-.7225-1.6172-1.6332.0035-.9043.7325-1.6336 1.6335-1.6314.9108.0034 1.657.757 1.6407 1.6612-.0163.9053-.7409 1.6068-1.657 1.6034z" fill="url(#r)"/><path d="m89.1666 36.123c-.9097-.0004-1.6413-.7183-1.6452-1.6151-.0049-.9129.7367-1.6542 1.6506-1.6463.9086.0079 1.6263.7312 1.6237 1.6355-.0004.9075-.7206 1.6263-1.6291 1.6259z" fill="url(#s)"/><path d="m73.4545 22.2956c-.0047-.9932.7828-1.6057 1.6291-1.628.9074-.0236 1.6387.7195 1.6419 1.6162.0034.9268-.7408 1.6656-1.6805 1.6411-.8679-.0226-1.614-.7163-1.5905-1.6293z" fill="url(#t)"/><path d="m83.7554 40.6324c.0053.8635-.7643 1.642-1.6268 1.6461-.8657.0041-1.6314-.7581-1.6421-1.6345-.0119-.8968.7151-1.6376 1.6161-1.6461.9193-.0097 1.6473.7098 1.6528 1.6345z" fill="url(#u)"/><path d="m90.7929 46.7616c-.0272.9629-.7191 1.5861-1.5758 1.6116-1.0239.0301-1.7025-.7203-1.698-1.6697.0029-.8604.7702-1.628 1.6161-1.5916.9327.0402 1.6797.7403 1.6577 1.6497z" fill="url(#v)"/><path d="m68.1313 36.1316c-.9107-.0051-1.6182-.7245-1.6139-1.6374.0053-.9064.7303-1.6268 1.6367-1.6239.915.0019 1.6438.7408 1.6331 1.659-.0106.9021-.7399 1.6086-1.6559 1.6023z" fill="url(#w)"/><path d="m68.2364 20.6427c.8276.0244 1.5728.8258 1.5495 1.6658-.0241.9312-.7699 1.615-1.6568 1.6037-.9447-.0121-1.6351-.756-1.6103-1.7064.025-.8604.8259-1.5896 1.7176-1.5631z" fill="url(#x)"/><path d="m82.1568 48.3894c-.9148.0177-1.6334-.6805-1.6686-1.5853-.0385-1.0547.9253-1.6597 1.5958-1.6785.9072-.025 1.6597.7045 1.6737 1.6216.0137.902-.6893 1.6235-1.6009 1.6422z" fill="url(#y)"/><path d="m82.1206 36.1317c-.915-.0008-1.6279-.7118-1.63-1.6225-.0022-.9172.7337-1.6483 1.6529-1.6377.8946.0103 1.6085.7256 1.613 1.6138.0053.9301-.708 1.6485-1.6359 1.6464z" fill="url(#z)"/><path d="m34.1553 7.73145h-3.5196l-7.4089 11.57995h5.0014z" fill="url(#A)"/><path d="m37.7603 11.6885-3.6073-3.95646-3.5187-.00143 5.3465 3.95739z" fill="url(#B)"/><path d="m82.1443 20.6386c.9021.0049 1.6196.7381 1.6124 1.6456-.0071.9096-.7339 1.626-1.6381 1.6178-.93-.0084-1.6357-.7297-1.6263-1.6585.0093-.9032.737-1.61 1.652-1.6049z" fill="url(#C)"/><path d="m36.845 27.1067c-1.6029.0011-3.2046-.0053-4.8075.0054-.2421.0021-.3289-.0718-.3514-.3096-.0418-.4243-.1147-.8433-.1747-1.2558.029-.0182.0375-.0267.045-.0267 1.3415-.0022 2.685-.0322 4.0265.0096.5775.0182 1.065.33 1.3628.8507.1125.1993.1597.4361.255.7072-.18.0096-.2678.0192-.3557.0192zm-10.3318 4.0543c-.0118-.1789-.0257-.3611-.0417-.5775h-.9097v-1.2825h.36c.7661 0 1.5321.0075 2.2982-.0053.2389-.0043.3536.0396.3793.3117.0482.5133.1436 1.0222.2239 1.5536zm1.4765-5.64c.0771.5025.1542 1.0179.2367 1.5611h-2.6528c-.0664-1.0029.9857-1.6939 2.4161-1.5611zm29.4513 3.8989c-.5796-.1789-1.1635-.3439-1.7464-.5089-.7136-.2036-.7061-.2025-.7125-.9289-.0011-.2036.0536-.2936.2604-.3493.7307-.1929 1.455-.4082 2.1782-.6268.0846-.0246.2089-.1189.2121-.1864.0204-.4243.0107-.8507.0107-1.3114h-4.3821v-1.3018c-2.1589-.5839-4.2857-1.1604-6.465-1.7507v1.8203c-.2164-.1275-.3857-.2593-.5775-.3321l-10.3339-3.4671c-1.0189-.539-1.9886-1.0618-2.9668-1.5654-.6085-.3139-1.2193-.63-1.8503-.8925-2.1461-.8925-4.3886-1.2868-6.7072-1.1711-1.6307.0804-3.2571.2261-4.8846.36-.6996.0579-1.3296.3268-1.7614.8936-.4897.6375-.9 1.335-1.3789 1.9811-.374.5068-.5186 1.0553-.51 1.6757.0096.7457.0085 1.4946-.045 2.2393-.0804 1.1142-.6547 1.6125-1.769 1.6232-.4768.0053-.96-.0075-1.4292.0632-1.1561.1746-2.1815 1.0778-2.2243 2.296-.0032.0783-.0311.1565-.0525.2325-.62146 2.2533-1.24395 4.5054-1.86752 6.7575-1.01786 3.6772-2.03679 7.3554-3.05464 11.0336-.59464 2.1471-1.18821 4.2932-1.78178 6.4392-.83893 3.029-1.64892 6.0654-2.53392 9.0804-.237859.8164.15107 1.5846.94285 1.8343.80678.2539 1.61035.5153 2.41392.7778 1.00072.3247 1.99071.3729 2.96143-.1071 1.88142-.9311 3.78536-1.8172 5.63786-2.8039 1.9189-1.0222 3.2357-2.5897 3.9418-4.6757.8196-2.4204 1.6896-4.8236 2.536-7.2354.0568-.1628.119-.2614.3225-.2743 1.3307-.0878 2.6625-.1885 3.9911-.3021.12-.0097.2303-.135.345-.2057-.0954-.0965-.1725-.2357-.2882-.2818-.7779-.3032-1.5632-.5861-2.3465-.8786-.6707-.2496-1.3639-.4521-2.0046-.7639-1.0018-.4886-1.4368-1.5568-1.1111-2.5243.8122-2.4128 1.6361-4.8214 2.4279-7.2418.2657-.8132.7832-1.2867 1.5943-1.485.5507-.1339 1.0993-.2732 1.6457-.4242.9407-.2625 1.4207-.8808 1.4646-1.8568.0022-.0472.0182-.0932.0332-.1693h.9022c.0128-.2143.0225-.3975.0321-.5807h2.4825c.0707.4896.1136.9578.21 1.4132.1018.4757.0525.8925-.1628 1.3446-.7318 1.5322-.99 3.1447-.6365 4.8236.2507 1.1989.5357 2.3936 1.3018 3.3975 1.3104 1.7175 2.9196 3.0943 4.7882 4.1678.2647.1522.5604.2572.8539.3461.1125.0332.3097.0054.3729-.0718.0643-.0782.0568-.2828-.0032-.3793-.1725-.2764-.3697-.5432-.5904-.7832-.5968-.6557-1.2235-1.2836-1.8139-1.9436-.9514-1.0639-1.7111-2.2349-2.0796-3.6428-.3632-1.3832-.2979-2.6957.4178-3.9557.3643-.6396.7211-1.2846 1.0564-1.9393.0879-.1714.1329-.3986.1072-.5882-.1522-1.1636-.3321-2.3239-.5014-3.4853-.0836-.5647-.164-1.1315-.2454-1.6993h5.085c0 .5678.0011 1.1035 0 1.6414-.0021.5914.2743 1.0243.7575 1.3393.3439.2239.7243.3118 1.1336.3107 1.8921-.0032 3.7842-.0064 5.6775.0011.7296.0032 1.4592.0375 2.0871-.5818v1.8803c2.175-.5882 4.3082-1.1657 6.465-1.7496v-1.2675h4.3703c0-.4543.0097-.8721-.0086-1.2868-.0032-.0707-.1135-.1703-.1939-.1961z" fill="url(#D)"/></svg>