<svg fill="none" height="40" viewBox="0 0 32 40" width="32" xmlns="http://www.w3.org/2000/svg" xmlns:xlink="http://www.w3.org/1999/xlink"><linearGradient id="a" gradientUnits="userSpaceOnUse" x1="-.06076" x2="20.1924" y1="19.9998" y2="19.9998"><stop offset="0" stop-color="#231f20"/><stop offset="1" stop-color="#5a5758"/></linearGradient><path d="m3 40c-.8 0-1.5-.3-2.1-.9s-.9-1.3-.9-2.1v-34c0-.8.3-1.5.9-2.1s1.3-.9 2.1-.9h16.8c.4 0 .7917.0833333 1.175.25.3833.166667.7083.383333.975.65l9.15 9.15c.2667.2667.4833.5917.65.975s.25.775.25 1.175v24.8c0 .8-.3 1.5-.9 2.1s-1.3.9-2.1.9zm16.55-29.2c0 .4333.1417.7917.425 1.075s.6417.425 1.075.425h7.95l-9.45-9.3z" fill="url(#a)"/><g fill="#fff"><path d="m14.5999 20.3499v8.55l-3.15-3.15c-.3-.3-.65-.45-1.05-.45s-.75.15-1.05.45-.45.65-.45 1.05.15.75.45 1.05l5.6 5.6c.1667.1667.3333.2833.5.35s.35.1.55.1.3833-.0333.55-.1.3333-.1833.5-.35l5.65-5.5c.3-.3.4583-.65.475-1.05.0047-.1121-.0031-.2202-.0233-.3244.0376.0031.0703.0029.0983-.0006.1333-.0167-.0333-.2583-.5-.725.216.216.3499.4578.4017.7256-.1413-.0117-.3502-.0703-.6267-.1756-.35-.1333-.725-.2833-1.125-.45s-.65-.2-.75-.1l-3.05 3.05v-8.55c0-.4333-.1417-.7917-.425-1.075s-.6417-.425-1.075-.425-.7917.1417-1.075.425-.425.6417-.425 1.075z"/><path d="m17.5944 20.3499v8.55l3.15-3.15c.3-.3.65-.45 1.05-.45s.75.15 1.05.45.45.65.45 1.05-.15.75-.45 1.05l-5.6 5.6c-.1666.1667-.3333.2833-.5.35-.1666.0667-.35.1-.55.1s-.3833-.0333-.55-.1c-.1666-.0667-.3333-.1833-.5-.35l-5.64997-5.5c-.3-.3-.45833-.65-.475-1.05-.00467-.1121.00309-.2202.02328-.3244-.03753.0031-.07029.0029-.09828-.0006-.13333-.0167.03334-.2583.5-.725-.21595.216-.34986.4578-.40172.7256.14128-.0117.35019-.0703.62672-.1756.34997-.1333.72497-.2833 1.12497-.45s.65-.2.75-.1l3.05 3.05v-8.55c0-.4333.1417-.7917.425-1.075.2834-.2833.6417-.425 1.075-.425.4334 0 .7917.1417 1.075.425.2834.2833.425.6417.425 1.075z"/></g></svg>