<svg fill="none" height="14" viewBox="0 0 15 14" width="15" xmlns="http://www.w3.org/2000/svg"><path d="m12.1875 2.0625c-1.2813-1.3125-3.03125-2.0625-4.90625-2.0625-3.8125 0-6.9375 3.125-6.9375 6.9375 0 1.25.34375 2.4375.9375 3.4687l-.96875 3.5938 3.65625-.9375c1.03125.5313 2.15625.8437 3.3125.8437 3.84375 0 7.03125-3.125 7.03125-6.93745 0-1.875-.8125-3.59375-2.125-4.90625zm-4.90625 10.6563c-1.03125 0-2.03125-.2813-2.9375-.8126l-.1875-.125-2.1875.5938.59375-2.125-.15625-.2188c-.5625-.93745-.875-1.99995-.875-3.0937 0-3.15625 2.59375-5.75 5.78125-5.75 1.53125 0 2.9687.59375 4.0625 1.6875s1.75 2.53125 1.75 4.09375c0 3.15625-2.6562 5.75005-5.84375 5.75005zm3.18755-4.31255c-.1876-.09375-1.0313-.5-1.18755-.5625s-.28125-.09375-.40625.09375c-.09375.15625-.4375.5625-.53125.6875-.125.09375-.21875.125-.375.03125-1.03125-.5-1.6875-.90625-2.375-2.0625-.1875-.3125.1875-.28125.5-.9375.0625-.125.03125-.21875 0-.3125s-.40625-.9375-.53125-1.28125c-.15625-.34375-.28125-.3125-.40625-.3125-.09375 0-.21875 0-.3125 0-.125 0-.3125.03125-.46875.21875s-.59375.59375-.59375 1.4375c0 .875.59375 1.6875.6875 1.8125.09375.09375 1.21875 1.84375 2.96875 2.59375 1.09375.5 1.53125.5313 2.09375.4375.3125-.0312.99995-.40625 1.15625-.8125s.1563-.75.0937-.8125c-.0312-.09375-.1562-.125-.3124-.21875z" fill="#353132" fill-opacity=".6"/></svg>