<svg fill="none" height="12" viewBox="0 0 18 12" width="18" xmlns="http://www.w3.org/2000/svg"><path d="m17.4688 1.90625c-.1876-.75-.7813-1.34375-1.5-1.53125-1.3438-.375-6.6563-.375-6.6563-.375s-5.34375 0-6.6875.375c-.71875.1875-1.3125.78125-1.5 1.53125-.375 1.3125-.375 4.125-.375 4.125s0 2.78125.375 4.12495c.1875.75.78125 1.3126 1.5 1.5 1.34375.3438 6.6875.3438 6.6875.3438s5.3125 0 6.6563-.3438c.7187-.1874 1.3124-.75 1.5-1.5.375-1.3437.375-4.12495.375-4.12495s0-2.8125-.375-4.125zm-9.9063 6.65625v-5.0625l4.4375 2.53125z" fill="#353132" fill-opacity=".6"/></svg>