<svg fill="none" height="67" viewBox="0 0 196 67" width="196" xmlns="http://www.w3.org/2000/svg"><path d="m72.239 19.0873c-.3322 4.3593-4.2926 8.0426-8.6403 8.0426-1.9236 0-3.655-.7246-4.8685-2.0361-1.2237-1.3194-1.817-3.1197-1.6698-5.0614.3329-4.3622 4.2897-8.0455 8.6403-8.0455 1.9236 0 3.6521.7217 4.8671 2.0331 1.2243 1.3231 1.8184 3.1219 1.6712 5.0673zm123.761-14.90439h-36.851l-3.307 15.96189-6.444-15.96189h-9.88v.00218c-1.816.03046-3.322 1.31287-3.72 3.03484l-.009.00507-3.546 17.1196-4.017-20.16169h-10.924c-1.306 0-2.462.65499-3.167 1.65814l-.004.00217-13.34 18.58188c-.001.0036-.006.0036-.01.0101-.708.9959-1.8552 1.6429-3.1608 1.6429h-7.4275l3.5636-17.28563-.0124-.01015c.0349-.21543.0588-.43521.0588-.65789 0-2.17893-1.7423-3.94152-3.8951-3.94152h-5.7353l-2.7498 13.28179c-.4018-8.25806-6.956-14.65269-15.494-14.65269-9.2503 0-17.3198 7.49639-18.0292 16.74819-.7028 9.2474 6.222 16.746 15.4702 16.746 7.0177 0 13.3543-4.3194 16.3151-10.4391l-.8058 3.8682c-.1161.3801-.1836.7827-.1836 1.2005 0 2.1745 1.7423 3.9415 3.8937 3.9415h21.8541c1.299 0 2.444-.647 3.152-1.632l.007-.0037 12.158-17.0202 1.393 7.1519c-1.73.9974-4.899 4.8236-2.747 4.8236 2.168 0 3.975 1.5537 4.392 3.6245l.594 3.0559h17.225l3.456-16.6945 7.122 16.6945h8.992c1.905 0 3.486-1.3869 3.824-3.2184l3.416-16.4863c.386-1.772 1.938-3.0914 3.803-3.0914h4.212l-4.724 22.7961h7.434l.002-.0036c1.854-.0211 3.396-1.3535 3.765-3.1241l.005-.0029 4.073-19.6655h5.202v-.0036c1.859 0 3.413-1.3252 3.796-3.09291l.01-.01088z" fill="#27bcee"/><path d="m26.3474 8.82799-.0152.00943c-.3649 1.67768-1.8344 2.93618-3.6021 2.93838v.0022h-7.0213l1.4093-6.82697h10.0352zm-4.5733 22.30581-.0043.0036c-.3489 1.6806-1.8141 2.9413-3.5694 2.9652l-.0051.0065h-7.0649l4.1722-19.9368h10.0272zm13.2528 8.0803-.045-.0718c-3.3591-6.1357-5.3059-11.2733-5.3059-19.4001 0-6.5585 2.1608-11.50899 4.5682-14.99136.1132-.18642.235-.37138.3823-.56432.5759-.75218.8936-1.57182.5875-2.44731-.103-.29594-.631-.905226-1.3897-.905226h-17.8696c-1.9592 0-3.5774 1.470266-3.8487 3.377196l-12.0182013 58.02312c-.0602035.2633-.08776818.5419-.08776818.8226 0 2.1804 1.74299948 3.9437 3.89364948 3.9437.0174 0 .03409-.0029.05077-.0029v.0029h15.56875c5.8753 0 19.1353-7.8388 19.1353-16.7874.198-3.9009-2.6054-9.2605-3.6216-10.9991z" fill="#27bcee"/><g fill="#5e636a"><path d="m69.4401 50.2024-4.3905 7.7459h5.1543zm1.405 15.0153-.3627-3.7703h-7.3695l-2.1129 3.7703h-4.2258l12.4128-21.2953h3.1755l2.7106 21.2953z"/><path d="m82.8101 47.6919c-1.3143 0-2.1361-1.1061-1.8308-2.4516.3083-1.3448 1.6321-2.4234 2.9428-2.4234 1.3136 0 2.1143 1.0786 1.8075 2.4234-.3075 1.3455-1.6102 2.4516-2.9195 2.4516zm-5.8985 17.5272 3.5593-15.5854h3.7892l-3.5622 15.5854z"/><path d="m89.4286 65.3977c-2.3864 0-4.4826-.2699-5.9544-2.2421l3.0559-2.543c.9596 1.2875 2.5503 1.4673 3.7174 1.4673 1.31 0 2.7795-.4489 3.0472-1.6182.177-.7761-.1052-1.3114-1.2723-1.4325l-2.3363-.2416c-2.6794-.2662-4.0866-1.4964-3.4287-4.3658.7384-3.2278 3.9002-4.9643 6.9872-4.9643 2.3625 0 4.2469.4185 5.377 1.8257l-2.876 2.4205c-.692-.8059-1.9758-1.0452-3.2887-1.0452-1.5131 0-2.3196.718-2.4974 1.4942-.1291.5686-.0478 1.2287 1.2672 1.3455l2.332.2401c2.9326.2995 4.0728 1.9446 3.4708 4.5762-.7856 3.4366-4.0155 5.0832-7.6009 5.0832z"/><path d="m102.923 65.2199c-3.1156 0-3.9121-2.242-3.4094-4.4601l3.8504-16.8374h3.782l-3.788 16.6031c-.211.9255.058 1.4028 1.018 1.4028h1.458l-.751 3.2916z"/><path d="m116.868 58.6396h-3.002c-1.367 0-2.277.6565-2.532 1.7641-.241 1.0757.293 1.7937 1.777 1.7937 1.049 0 1.741-.0892 2.561-.7471.496-.3873.785-1.0162 1.003-1.9743zm-1.417 6.5796.306-1.3498c-1.256 1.0532-2.322 1.4992-4.069 1.4992-1.719 0-2.87-.446-3.563-1.3774-.613-.866-.768-2.1209-.454-3.4969.57-2.4835 2.695-4.5152 6.221-4.5152h3.585l.176-.7798c.389-1.7052-.257-2.4524-2.266-2.4524-1.456 0-2.208.3598-3.208 1.2868l-1.863-2.4226c1.866-1.6749 3.433-2.1536 5.969-2.1536 4.256 0 6.043 1.8547 5.212 5.501l-2.345 10.2607z"/><path d="m131.625 65.22 2.149-9.4244c.49-2.1209-.658-2.839-1.853-2.839s-2.701.7181-3.185 2.839l-2.154 9.4244h-3.786l3.558-15.5862h3.701l-.328 1.4376c1.236-1.0779 2.76-1.6139 4.157-1.6139 1.516 0 2.622.507 3.269 1.376.938 1.2548.922 2.7229.533 4.4268l-2.275 9.9597z"/><path d="m143.801 65.2183c-3.087 0-3.888-2.2421-3.382-4.4602l1.762-7.714h-1.602l.674-2.9616h1.604l1.055-4.6045h3.789l-1.056 4.6045h2.683l-.678 2.9616h-2.684l-1.704 7.4797c-.205.8951.085 1.4028.989 1.4028h1.37l-.75 3.2917z"/><path d="m159.674 54.3008c-.198-.9262-.886-1.6131-2.169-1.6131-1.282 0-2.282.6869-2.902 1.6131-.363.5644-.548.9887-.735 1.6756h5.77c.125-.6869.138-1.1112.036-1.6756zm-6.41 4.3369c-.459 2.0019.4 3.4678 2.524 3.4678 1.664 0 2.589-.478 3.777-1.4659l1.775 2.3037c-1.908 1.5856-3.59 2.451-6.33 2.451-3.584 0-6.637-1.6749-5.198-7.9825 1.164-5.0839 4.497-7.9577 8.433-7.9577 4.224 0 5.89 3.1719 4.913 7.4457l-.396 1.7379z"/><path d="m169.253 65.3977c-2.388 0-4.483-.2699-5.954-2.2421l3.055-2.543c.96 1.2875 2.551 1.4673 3.717 1.4673 1.312 0 2.783-.4489 3.049-1.6182.177-.7761-.106-1.3114-1.272-1.4325l-2.339-.2416c-2.677-.2662-4.084-1.4964-3.43-4.3658.738-3.2278 3.905-4.9643 6.991-4.9643 2.358 0 4.244.4185 5.382 1.8257l-2.884 2.4205c-.689-.8059-1.975-1.0452-3.285-1.0452-1.516 0-2.323.718-2.499 1.4942-.131.5686-.047 1.2287 1.267 1.3455l2.335.2401c2.93.2995 4.07 1.9446 3.469 4.5762-.787 3.4366-4.017 5.0832-7.602 5.0832z"/></g><path d="m55.0791 3.46843c.5498-.39169 2.2246-1.44271 2.3458-2.634446h-11.8224c-2.3995 0-4.5893.904506-6.2554 2.397986h-.0022c-2.8237 2.82739-6.7123 8.22753-6.7123 16.50953 0 7.236 1.5914 11.8616 4.9418 17.9733 0 0 4.0684 6.9031 4.0293 12.526-.0051.6317-.0682 1.2592-.1756 1.8663-1.1707 3.993-4.1054 9.0305-9.2612 12.2583-.5461.3924-2.2239 1.4441-2.3443 2.6344h13.9818c2.3979 0 4.5892-.9045 6.2546-2.3965 2.3813-2.6497 5.567-7.4877 5.567-14.4148 0-8.8528-4.7938-14.9058-6.8654-18.1916-2.0716-3.2872-3.4562-7.5631-3.5476-12.4759-.0711-3.8987 2.8469-11.65409 9.8661-16.05257z" fill="#e5332c"/></svg>