<svg fill="none" height="26" viewBox="0 0 196 26" width="196" xmlns="http://www.w3.org/2000/svg"><g fill="#1d1e1c"><path d="m59.7847 24.5444h-19.1239c-4.4673 0-8.1027-3.6354-8.1027-8.1027 0-4.4684 3.6354-8.10381 8.1027-8.10381h19.1239c.9983 0 1.8085.81027 1.8085 1.80861 0 .9983-.8102 1.8085-1.8085 1.8085h-19.1239c-2.473 0-4.4856 2.0126-4.4856 4.4867 0 2.473 2.0126 4.4855 4.4856 4.4855h19.1239c.9983 0 1.8085.8091 1.8085 1.8086 0 .9983-.8102 1.8086-1.8085 1.8086z"/><path d="m58.4703 18.25h-24.1097c-.9995 0-1.8086-.8103-1.8086-1.8086s.8091-1.8086 1.8086-1.8086h24.1097c.9983 0 1.8085.8091 1.8085 1.8086 0 .9983-.8102 1.8086-1.8085 1.8086z"/><path d="m119.339 24.5444h-19.122c-4.4688 0-8.1042-3.6354-8.1042-8.1027 0-4.4684 3.6354-8.10381 8.1042-8.10381h19.122c.999 0 1.809.81027 1.809 1.80861 0 .9983-.81 1.8085-1.809 1.8085h-19.122c-2.4745 0-4.4871 2.0126-4.4871 4.4867 0 2.473 2.0126 4.4855 4.4871 4.4855h19.122c.999 0 1.809.8091 1.809 1.8086 0 .9983-.81 1.8086-1.809 1.8086z"/><path d="m118.037 18.25h-24.1097c-.9983 0-1.8085-.8103-1.8085-1.8086 0-.9995.8102-1.8086 1.8085-1.8086h24.1097c.998 0 1.809.8091 1.809 1.8086 0 .9983-.811 1.8086-1.809 1.8086z"/><path d="m88.8226 24.5444c-.2861 0-.571-.0684-.8319-.204l-21.6151-11.2173v9.6127c0 .9983-.8103 1.8086-1.8086 1.8086-.9995 0-1.8086-.8103-1.8086-1.8086v-12.5893c0-.63139.3294-1.21715.8696-1.54536.539-.32707 1.2114-.34986 1.7709-.05926l21.6151 11.21722v-9.6126c0-.99834.8103-1.80861 1.8086-1.80861s1.8085.81027 1.8085 1.80861v12.5893c0 .6313-.3293 1.2171-.8695 1.5453-.2883.1744-.6131.2633-.939.2633z"/><path d="m149.587 24.5444h-24.943c-.838 0-1.566-.5744-1.76-1.3904-.193-.8148.197-1.6558.945-2.033l18.161-9.166h-17.346c-.998 0-1.809-.8091-1.809-1.8085 0-.99834.811-1.80861 1.809-1.80861h24.943c.837 0 1.565.57551 1.759 1.39033.195.81478-.197 1.65588-.943 2.03308l-18.162 9.1659h17.346c.999 0 1.808.8103 1.808 1.8086s-.809 1.8086-1.808 1.8086z"/><path d="m154.622 24.5444c-.999 0-1.809-.8103-1.809-1.8086v-12.5893c0-.99834.81-1.80861 1.809-1.80861.998 0 1.809.81027 1.809 1.80861v12.5893c0 .9983-.811 1.8086-1.809 1.8086z"/><path d="m160.909 25.3182c-.565 0-1.135-.1846-1.611-.5653-1.115-.89-1.297-2.5162-.406-3.6319l16.105-20.149559c.489-.610834 1.226-.96753387 2.007-.97095272h.013c.776 0 1.513.34986172 2.003.95271872l16.4 20.150693c.901 1.1054.734 2.7339-.374 3.6342-1.106.9003-2.732.7339-3.633-.3726l-14.379-17.66635-14.105 17.64805c-.511.6394-1.262.971-2.02.971z"/><path d="m18.9843 25.3183c-.7784 0-1.5134-.3499-2.0046-.9527l-16.399079-20.15073c-.901436-1.10657-.735051-2.73394.372655-3.634236 1.106564-.900296 2.732794-.735052 3.634234.372654l14.37739 17.666312 14.105-17.648078c.8935-1.115684 2.5174-1.295743 3.6331-.405703 1.1134.891181 1.2958 2.516271.4046 3.631951l-16.1051 20.14953c-.4877.6108-1.2262.9675-2.0068.971z"/></g><path d="m172.4 17.6099h8.25v8.2485h-8.25z" fill="#bb7e67"/></svg>